<svg width="15" height="10" viewBox="0 0 15 10" fill="none" xmlns="http://www.w3.org/2000/svg">
<path d="M5.318 0.400976C5.44239 0.525054 5.51271 0.693257 5.51365 0.868946C5.51458 1.04464 5.44606 1.21358 5.323 1.33898L2.229 4.43898H14.018C14.1893 4.44563 14.3513 4.51834 14.4701 4.64186C14.5889 4.76537 14.6553 4.93009 14.6553 5.10148C14.6553 5.27286 14.5889 5.43758 14.4701 5.5611C14.3513 5.68461 14.1893 5.75732 14.018 5.76398H2.227L5.327 8.86398C5.44886 8.99 5.51656 9.1587 5.51563 9.33399C5.51469 9.50929 5.4452 9.67726 5.322 9.80198C5.19758 9.92497 5.02942 9.99354 4.85447 9.9926C4.67952 9.99166 4.51209 9.9213 4.389 9.79698L0.189 5.56698C0.131521 5.50561 0.0848595 5.43494 0.0510001 5.35798C0.0165073 5.27743 -0.000860456 5.19059 -4.28117e-08 5.10298C-7.07853e-06 4.92956 0.0678272 4.76303 0.189 4.63898L4.389 0.408976C4.44892 0.346495 4.52074 0.296635 4.60022 0.262329C4.6797 0.228024 4.76525 0.209968 4.85181 0.209222C4.93838 0.208477 5.02422 0.225058 5.10429 0.257989C5.18435 0.290921 5.25701 0.339537 5.318 0.400976Z" fill="#0D2D52"/>
</svg>
