<svg width="20" height="20" viewBox="0 0 20 20" fill="none" xmlns="http://www.w3.org/2000/svg">
<path d="M8.26125 2.04576C8.31511 1.45349 8.81168 1 9.40635 1H10.5757C11.1704 1 11.667 1.45349 11.7208 2.04576C11.7651 2.532 12.115 2.92896 12.5722 3.10031C12.6897 3.14435 12.8059 3.19133 12.9205 3.24113C13.3728 3.43773 13.9049 3.40005 14.2838 3.08428C14.7521 2.69409 15.4406 2.72533 15.8715 3.15631L16.6969 3.98163C17.1078 4.39255 17.1376 5.04901 16.7655 5.49545C16.4557 5.86729 16.4268 6.39233 16.6351 6.82926C16.7253 7.01847 16.8077 7.21214 16.8818 7.40985C17.0531 7.86706 17.4501 8.21702 17.9363 8.26125C18.5286 8.31511 18.9821 8.81168 18.9821 9.40635V10.5757C18.9821 11.1704 18.5286 11.667 17.9363 11.7208C17.4501 11.7651 17.0531 12.115 16.8818 12.5722C16.8152 12.7497 16.742 12.9239 16.6626 13.0946C16.4694 13.5092 16.5006 14.0044 16.7935 14.3558C17.1497 14.7833 17.1212 15.4118 16.7278 15.8053L15.8053 16.7278C15.4118 17.1212 14.7833 17.1497 14.3558 16.7935C14.0044 16.5006 13.5092 16.4694 13.0946 16.6626C12.9239 16.742 12.7497 16.8152 12.5722 16.8818C12.115 17.0531 11.7651 17.4501 11.7208 17.9363C11.667 18.5286 11.1704 18.9821 10.5757 18.9821H9.40635C8.81168 18.9821 8.31511 18.5286 8.26125 17.9363C8.21702 17.4501 7.86706 17.0531 7.40986 16.8818C7.21215 16.8077 7.01848 16.7253 6.82928 16.6351C6.39234 16.4268 5.8673 16.4557 5.49545 16.7655C5.04901 17.1376 4.39254 17.1078 3.98163 16.6969L3.15631 15.8715C2.72532 15.4406 2.69409 14.7521 3.08428 14.2838C3.40006 13.9049 3.43773 13.3728 3.24113 12.9205C3.19133 12.8059 3.14436 12.6898 3.10031 12.5722C2.92897 12.115 2.532 11.7651 2.04576 11.7208C1.45349 11.667 1 11.1704 1 10.5757V9.40635C1 8.81168 1.45349 8.31511 2.04576 8.26125C2.53201 8.21702 2.92897 7.86707 3.10032 7.40986C3.15209 7.2717 3.20791 7.1355 3.26762 7.00142C3.47892 6.52693 3.4438 5.96536 3.11128 5.56634C2.7058 5.07976 2.73826 4.36426 3.18613 3.91638L3.91637 3.18613C4.36425 2.73826 5.07975 2.7058 5.56633 3.11129C5.96535 3.44381 6.52693 3.47892 7.00141 3.26762C7.13549 3.20791 7.27169 3.15209 7.40985 3.10032C7.86706 2.92897 8.21702 2.53201 8.26125 2.04576V2.04576Z" stroke="#0070F4" stroke-width="1.5" stroke-linecap="round" stroke-linejoin="round"/>
<path d="M12.6883 9.99101C12.6883 11.4807 11.4807 12.6883 9.99101 12.6883C8.50129 12.6883 7.2937 11.4807 7.2937 9.99101C7.2937 8.50129 8.50129 7.2937 9.99101 7.2937C11.4807 7.2937 12.6883 8.50129 12.6883 9.99101Z" stroke="#0070F4" stroke-width="1.5" stroke-linecap="round" stroke-linejoin="round"/>
</svg>
